<mxfile host="app.diagrams.net" modified="2022-04-25T17:57:49.051Z" agent="5.0 (Windows NT 10.0; Win64; x64) AppleWebKit/537.36 (KHTML, like Gecko) Chrome/100.0.4896.127 Safari/537.36" etag="AIXZakS-R8Bd-01VjNXp" version="17.4.3" type="github">
  <diagram id="VqebbgbibCcYAlkrphn7" name="Page-1">
    <mxGraphModel dx="782" dy="403" grid="1" gridSize="10" guides="1" tooltips="1" connect="1" arrows="1" fold="1" page="1" pageScale="1" pageWidth="850" pageHeight="1100" math="0" shadow="0">
      <root>
        <mxCell id="0" />
        <mxCell id="1" parent="0" />
        <mxCell id="Mw3tLQi9poVHRoFy89I7-1" value="&amp;lt;&amp;lt;device&amp;gt;&amp;gt;&lt;br&gt;:ApplicationServer" style="verticalAlign=top;align=left;spacingTop=8;spacingLeft=2;spacingRight=12;shape=cube;size=10;direction=south;fontStyle=4;html=1;" vertex="1" parent="1">
          <mxGeometry x="30" y="110" width="180" height="210" as="geometry" />
        </mxCell>
        <mxCell id="Mw3tLQi9poVHRoFy89I7-2" value="&lt;p style=&quot;margin: 0px ; margin-top: 6px ; text-align: center&quot;&gt;&lt;b&gt;Login&amp;nbsp;&lt;/b&gt;&lt;/p&gt;&lt;p style=&quot;margin: 0px ; margin-top: 6px ; text-align: center&quot;&gt;&lt;b&gt;Manager&lt;/b&gt;&lt;/p&gt;" style="align=left;overflow=fill;html=1;dropTarget=0;" vertex="1" parent="1">
          <mxGeometry x="50" y="170" width="120" height="50" as="geometry" />
        </mxCell>
        <mxCell id="Mw3tLQi9poVHRoFy89I7-3" value="" style="shape=component;jettyWidth=8;jettyHeight=4;" vertex="1" parent="Mw3tLQi9poVHRoFy89I7-2">
          <mxGeometry x="1" width="20" height="20" relative="1" as="geometry">
            <mxPoint x="-24" y="4" as="offset" />
          </mxGeometry>
        </mxCell>
        <mxCell id="Mw3tLQi9poVHRoFy89I7-4" value="&lt;p style=&quot;margin: 0px ; margin-top: 6px ; text-align: center&quot;&gt;&lt;b&gt;Project&lt;/b&gt;&lt;/p&gt;&lt;p style=&quot;margin: 0px ; margin-top: 6px ; text-align: center&quot;&gt;&lt;b&gt;Manager&lt;/b&gt;&lt;/p&gt;" style="align=left;overflow=fill;html=1;dropTarget=0;" vertex="1" parent="1">
          <mxGeometry x="50" y="250" width="130" height="50" as="geometry" />
        </mxCell>
        <mxCell id="Mw3tLQi9poVHRoFy89I7-5" value="" style="shape=component;jettyWidth=8;jettyHeight=4;" vertex="1" parent="Mw3tLQi9poVHRoFy89I7-4">
          <mxGeometry x="1" width="20" height="20" relative="1" as="geometry">
            <mxPoint x="-24" y="4" as="offset" />
          </mxGeometry>
        </mxCell>
        <mxCell id="Mw3tLQi9poVHRoFy89I7-6" value="&amp;lt;&amp;lt;device&amp;gt;&amp;gt;&lt;br&gt;:DataBase Server" style="verticalAlign=top;align=left;spacingTop=8;spacingLeft=2;spacingRight=12;shape=cube;size=10;direction=south;fontStyle=4;html=1;" vertex="1" parent="1">
          <mxGeometry x="360" y="50" width="180" height="130" as="geometry" />
        </mxCell>
        <mxCell id="Mw3tLQi9poVHRoFy89I7-7" value="&lt;p style=&quot;margin: 0px ; margin-top: 6px ; text-align: center&quot;&gt;&lt;b&gt;Check&amp;nbsp;&lt;/b&gt;&lt;/p&gt;&lt;p style=&quot;margin: 0px ; margin-top: 6px ; text-align: center&quot;&gt;&lt;b&gt;credentials&lt;/b&gt;&lt;/p&gt;" style="align=left;overflow=fill;html=1;dropTarget=0;" vertex="1" parent="1">
          <mxGeometry x="370" y="120" width="130" height="45" as="geometry" />
        </mxCell>
        <mxCell id="Mw3tLQi9poVHRoFy89I7-8" value="" style="shape=component;jettyWidth=8;jettyHeight=4;" vertex="1" parent="Mw3tLQi9poVHRoFy89I7-7">
          <mxGeometry x="1" width="20" height="20" relative="1" as="geometry">
            <mxPoint x="-24" y="4" as="offset" />
          </mxGeometry>
        </mxCell>
        <mxCell id="Mw3tLQi9poVHRoFy89I7-9" value="&amp;lt;&amp;lt;device&amp;gt;&amp;gt;&lt;br&gt;:ApplicationServer" style="verticalAlign=top;align=left;spacingTop=8;spacingLeft=2;spacingRight=12;shape=cube;size=10;direction=south;fontStyle=4;html=1;" vertex="1" parent="1">
          <mxGeometry x="335" y="270" width="180" height="255" as="geometry" />
        </mxCell>
        <mxCell id="Mw3tLQi9poVHRoFy89I7-10" value="&lt;p style=&quot;margin: 0px ; margin-top: 6px ; text-align: center&quot;&gt;&lt;b&gt;Select Project&lt;/b&gt;&lt;/p&gt;" style="align=left;overflow=fill;html=1;dropTarget=0;" vertex="1" parent="1">
          <mxGeometry x="350" y="330" width="130" height="30" as="geometry" />
        </mxCell>
        <mxCell id="Mw3tLQi9poVHRoFy89I7-11" value="" style="shape=component;jettyWidth=8;jettyHeight=4;" vertex="1" parent="Mw3tLQi9poVHRoFy89I7-10">
          <mxGeometry x="1" width="20" height="20" relative="1" as="geometry">
            <mxPoint x="-24" y="4" as="offset" />
          </mxGeometry>
        </mxCell>
        <mxCell id="Mw3tLQi9poVHRoFy89I7-12" value="&lt;p style=&quot;margin: 0px ; margin-top: 6px ; text-align: center&quot;&gt;&lt;b&gt;Add/remove&amp;nbsp;&lt;/b&gt;&lt;/p&gt;&lt;p style=&quot;margin: 0px ; margin-top: 6px ; text-align: center&quot;&gt;&lt;b&gt;process&lt;/b&gt;&lt;/p&gt;" style="align=left;overflow=fill;html=1;dropTarget=0;" vertex="1" parent="1">
          <mxGeometry x="350" y="377.5" width="130" height="50" as="geometry" />
        </mxCell>
        <mxCell id="Mw3tLQi9poVHRoFy89I7-13" value="" style="shape=component;jettyWidth=8;jettyHeight=4;" vertex="1" parent="Mw3tLQi9poVHRoFy89I7-12">
          <mxGeometry x="1" width="20" height="20" relative="1" as="geometry">
            <mxPoint x="-24" y="4" as="offset" />
          </mxGeometry>
        </mxCell>
        <mxCell id="Mw3tLQi9poVHRoFy89I7-14" value="&lt;p style=&quot;margin: 0px ; margin-top: 6px ; text-align: center&quot;&gt;&lt;b&gt;Update Project&lt;/b&gt;&lt;/p&gt;&lt;p style=&quot;margin: 0px ; margin-top: 6px ; text-align: center&quot;&gt;&lt;b&gt;status&lt;/b&gt;&lt;/p&gt;" style="align=left;overflow=fill;html=1;dropTarget=0;" vertex="1" parent="1">
          <mxGeometry x="350" y="450" width="140" height="50" as="geometry" />
        </mxCell>
        <mxCell id="Mw3tLQi9poVHRoFy89I7-15" value="" style="shape=component;jettyWidth=8;jettyHeight=4;" vertex="1" parent="Mw3tLQi9poVHRoFy89I7-14">
          <mxGeometry x="1" width="20" height="20" relative="1" as="geometry">
            <mxPoint x="-24" y="4" as="offset" />
          </mxGeometry>
        </mxCell>
        <mxCell id="Mw3tLQi9poVHRoFy89I7-16" value="" style="endArrow=none;html=1;rounded=0;exitX=0.257;exitY=-0.007;exitDx=0;exitDy=0;exitPerimeter=0;entryX=0.477;entryY=1.004;entryDx=0;entryDy=0;entryPerimeter=0;" edge="1" parent="1" source="Mw3tLQi9poVHRoFy89I7-1" target="Mw3tLQi9poVHRoFy89I7-6">
          <mxGeometry width="50" height="50" relative="1" as="geometry">
            <mxPoint x="380" y="320" as="sourcePoint" />
            <mxPoint x="430" y="270" as="targetPoint" />
          </mxGeometry>
        </mxCell>
        <mxCell id="Mw3tLQi9poVHRoFy89I7-17" value="" style="endArrow=none;html=1;rounded=0;exitX=0.762;exitY=0;exitDx=0;exitDy=0;exitPerimeter=0;entryX=0;entryY=0;entryDx=132.5;entryDy=180;entryPerimeter=0;" edge="1" parent="1" source="Mw3tLQi9poVHRoFy89I7-1" target="Mw3tLQi9poVHRoFy89I7-9">
          <mxGeometry width="50" height="50" relative="1" as="geometry">
            <mxPoint x="380" y="320" as="sourcePoint" />
            <mxPoint x="430" y="270" as="targetPoint" />
          </mxGeometry>
        </mxCell>
        <mxCell id="Mw3tLQi9poVHRoFy89I7-18" value="&amp;lt;&amp;lt;projectManager&amp;gt;&amp;gt;" style="text;html=1;strokeColor=none;fillColor=none;align=center;verticalAlign=middle;whiteSpace=wrap;rounded=0;rotation=45;" vertex="1" parent="1">
          <mxGeometry x="205" y="300" width="130" height="20" as="geometry" />
        </mxCell>
        <mxCell id="Mw3tLQi9poVHRoFy89I7-19" value="&amp;lt;&amp;lt;checkDatabase&amp;gt;&amp;gt;" style="text;html=1;strokeColor=none;fillColor=none;align=center;verticalAlign=middle;whiteSpace=wrap;rounded=0;rotation=-15;" vertex="1" parent="1">
          <mxGeometry x="220" y="110" width="120" height="20" as="geometry" />
        </mxCell>
      </root>
    </mxGraphModel>
  </diagram>
</mxfile>
